<?xml version="1.0" encoding="UTF-8"?>
<svg width="13px" height="13px" viewBox="0 0 13 13" version="1.1" xmlns="http://www.w3.org/2000/svg" xmlns:xlink="http://www.w3.org/1999/xlink">
    <!-- Generator: Sketch 49.2 (51160) - http://www.bohemiancoding.com/sketch -->
    <title>Shape</title>
    <desc>Created with Sketch.</desc>
    <defs></defs>
    <g id="Page-1" stroke="none" stroke-width="1" fill="none" fill-rule="evenodd">
        <g id="Recent-posts-4" transform="translate(-635.000000, -511.000000)" fill="#9B9B9B" fill-rule="nonzero">
            <path d="M636.5,511 C635.675781,511 635,511.653969 635,512.451585 L635,520.19337 C635,520.990986 635.675781,521.644955 636.5,521.644955 L641.347656,521.644955 L645,524 L645,521.644955 L646.5,521.644955 C647.324219,521.644955 648,520.990986 648,520.19337 L648,512.451585 C648,511.653969 647.324219,511 646.5,511 L636.5,511 Z M636.5,511.967723 L646.5,511.967723 C646.78125,511.967723 647,512.179413 647,512.451585 L647,520.19337 C647,520.465542 646.78125,520.677232 646.5,520.677232 L644,520.677232 L644,522.193079 L641.652344,520.677232 L636.5,520.677232 C636.21875,520.677232 636,520.465542 636,520.19337 L636,512.451585 C636,512.179413 636.21875,511.967723 636.5,511.967723 Z M638,513.903169 L638,514.870893 L645,514.870893 L645,513.903169 L638,513.903169 Z M638,515.838616 L638,516.806339 L645,516.806339 L645,515.838616 L638,515.838616 Z M638,517.774062 L638,518.741785 L642,518.741785 L642,517.774062 L638,517.774062 Z" id="Shape"></path>
        </g>
    </g>
</svg>